// Created by Tree IT
mtllib oak2_LOD5.mtl
o tree
# Position
v -386.56335 763.06628 -8.12480 0.49412 0.50588 0.49804 1.00000
v 384.24902 763.06628 -8.12480 0.49412 0.50588 0.49804 1.00000
v -386.56335 233.77371 -8.12480 0.49412 0.50588 0.49804 1.00000
v 384.24902 233.77371 -8.12480 0.49412 0.50588 0.49804 1.00000
v 17.30009 890.82642 -8.12480 0.49412 0.50588 0.49804 1.00000
v -1.15717 -21.74678 -8.12480 0.49412 0.50588 0.49804 1.00000
v 14.71607 763.06628 397.93494 0.49412 0.50588 0.49804 1.00000
v 14.71607 763.06628 -414.18454 0.49412 0.50588 0.49804 1.00000
v 4.01086 233.77371 397.93494 0.49412 0.50588 0.49804 1.00000
v 4.01086 233.77371 -414.18454 0.49412 0.50588 0.49804 1.00000
v 17.30009 890.82642 -8.12480 0.49412 0.50588 0.49804 1.00000
v -1.15717 -21.74678 -8.12480 0.49412 0.50588 0.49804 1.00000
v -386.56335 763.06628 -8.12480 0.49412 0.50588 0.49804 1.00000
v 384.24902 763.06628 -8.12480 0.49412 0.50588 0.49804 1.00000
v -386.56335 233.77371 -8.12480 0.49412 0.50588 0.49804 1.00000
v 384.24902 233.77371 -8.12480 0.49412 0.50588 0.49804 1.00000
v 17.30009 890.82642 -8.12480 0.49412 0.50588 0.49804 1.00000
v -1.15717 -21.74678 -8.12480 0.49412 0.50588 0.49804 1.00000
v 14.71607 763.06628 397.93494 0.49412 0.50588 0.49804 1.00000
v 14.71607 763.06628 -414.18454 0.49412 0.50588 0.49804 1.00000
v 4.01086 233.77371 397.93494 0.49412 0.50588 0.49804 1.00000
v 4.01086 233.77371 -414.18454 0.49412 0.50588 0.49804 1.00000
v 17.30009 890.82642 -8.12480 0.49412 0.50588 0.49804 1.00000
v -1.15717 -21.74678 -8.12480 0.49412 0.50588 0.49804 1.00000
# Normals
vn 0.00000 0.00000 1.00000
vn 0.00000 0.00000 1.00000
vn 0.00000 0.00000 1.00000
vn 0.00000 0.00000 1.00000
vn 0.00000 0.00000 1.00000
vn 0.00000 0.00000 1.00000
vn 0.99980 -0.02022 0.00000
vn 0.99980 -0.02022 0.00000
vn 0.99980 -0.02022 0.00000
vn 0.99980 -0.02022 0.00000
vn 0.99980 -0.02022 0.00000
vn 0.99980 -0.02022 0.00000
vn 0.00000 0.00000 -1.00000
vn 0.00000 0.00000 -1.00000
vn 0.00000 0.00000 -1.00000
vn 0.00000 0.00000 -1.00000
vn 0.00000 0.00000 -1.00000
vn 0.00000 0.00000 -1.00000
vn -0.99980 0.02022 0.00000
vn -0.99980 0.02022 0.00000
vn -0.99980 0.02022 0.00000
vn -0.99980 0.02022 0.00000
vn -0.99980 0.02022 0.00000
vn -0.99980 0.02022 0.00000
# Uv
vt 0.00000 0.93000
vt 0.50000 0.93000
vt 0.00000 0.64000
vt 0.50000 0.64000
vt 0.26250 1.00000
vt 0.25000 0.50000
vt 0.50000 0.93000
vt 1.00000 0.93000
vt 0.50000 0.64000
vt 1.00000 0.64000
vt 0.75000 1.00000
vt 0.75000 0.50000
vt 0.50000 0.43000
vt 0.00000 0.43000
vt 0.50000 0.14000
vt 0.00000 0.14000
vt 0.23750 0.50000
vt 0.25000 0.00000
vt 1.00000 0.43000
vt 0.50000 0.43000
vt 1.00000 0.14000
vt 0.50000 0.14000
vt 0.75000 0.50000
vt 0.75000 0.00000

g oak2 Imposter
usemtl oak2 Imposter
f 2/2/2 1/1/1 3/3/3
f 4/4/4 2/2/2 3/3/3
f 2/2/2 5/5/5 1/1/1
f 4/4/4 3/3/3 6/6/6
f 8/8/8 7/7/7 9/9/9
f 10/10/10 8/8/8 9/9/9
f 8/8/8 11/11/11 7/7/7
f 10/10/10 9/9/9 12/12/12
f 15/15/15 13/13/13 14/14/14
f 15/15/15 14/14/14 16/16/16
f 13/13/13 17/17/17 14/14/14
f 18/18/18 15/15/15 16/16/16
f 21/21/21 19/19/19 20/20/20
f 21/21/21 20/20/20 22/22/22
f 19/19/19 23/23/23 20/20/20
f 24/24/24 21/21/21 22/22/22

